<?xml version="1.0" encoding="UTF-8"?>
<svg id="Layer_2" data-name="Layer 2" xmlns="http://www.w3.org/2000/svg" viewBox="0 0 274.36 188.8">
  <defs>
    <style>
      .cls-1 {
        fill: #ff7f32;
      }

      .cls-2 {
        fill: #0d4073;
      }
    </style>
  </defs>
  <g id="Layer_1-2" data-name="Layer 1">
    <g>
      <path class="cls-1" d="M273.72,174.7l-49.72-136.65C215.72,15.3,194.15-.51,169.97.01c-20.81.43-39.92,11.53-50.68,29.35l-7.31,12.6h-.03s-1.67,2.87-1.67,2.87h-39.5c-5.51,0-9.98,4.48-9.98,9.99s4.47,9.99,9.98,9.99h27.93l-.02.03h4.24c5.9,0,10.68,4.78,10.68,10.68s-4.78,10.68-10.68,10.68h-16.61l-.02.03H9.99c-5.52,0-9.99,4.47-9.99,9.98s4.47,9.99,9.99,9.99h64.87l-11.35,19.64h-.18l-1.12,1.93h-29.03c-5.52,0-9.99,4.47-9.99,9.98s4.47,9.99,9.99,9.99h17.67l-14.63,25.34c-4.03,6.99,1.04,15.72,9.08,15.72h53.69c7.49,0,14.4-4,18.16-10.48l18.15-31.47h65.38l11.83,31.47c2.29,6.1,8.1,10.16,14.62,10.2l36.67.26c7.31.06,12.42-7.21,9.92-14.08Z"/>
      <path class="cls-2" d="M158.44,106.73c-5.66,0-10.26-4.59-10.26-10.26s4.59-10.25,10.26-10.25,10.26,4.59,10.26,10.25-4.59,10.26-10.26,10.26"/>
      <path class="cls-2" d="M196.88,106.7c-5.67,0-10.26-4.59-10.26-10.25s4.59-10.27,10.26-10.27,10.26,4.61,10.26,10.27-4.59,10.25-10.26,10.25"/>
    </g>
  </g>
</svg>