<?xml version="1.0" encoding="UTF-8"?>
<svg id="Layer_2" data-name="Layer 2" xmlns="http://www.w3.org/2000/svg" viewBox="0 0 520 89.78">
  <defs>
    <style>
      .cls-1 {
        fill: #fff;
      }

      .cls-2 {
        fill: #ff7f32;
      }

      .cls-3 {
        fill: #0d4073;
      }
    </style>
  </defs>
  <g id="Layer_1-2" data-name="Layer 1">
    <g>
      <path class="cls-1" d="M170.55,49.71h16.53l-8.26-22.73-8.26,22.73ZM197.18,77.77l-5.72-16.05h-25.16l-5.87,16.05h-12.93l23.99-64.12h14.74l23.94,64.12h-12.99Z"/>
      <path class="cls-1" d="M215.54,13.65h12.02v23c2.81-2.32,5.98-3.47,9.48-3.47,2.94,0,5.73.74,8.36,2.21,2.63,1.47,4.63,3.46,6.01,5.96,1.75,3.07,2.63,7.23,2.63,12.49v23.93h-12.02v-22.31c0-8.4-3.01-11.38-6.76-11.38-1.85,0-7.7.41-7.7,11.92v21.78h-12.02V13.65Z"/>
      <path class="cls-1" d="M308.89,34.06h11.92v2.56c2.82-2.32,5.85-3.47,9.11-3.47,3.88,0,7.48,1.53,10.8,4.6,3.57-3.07,7.6-4.6,12.11-4.6,7.2,0,12.4,2.88,15.59,8.64,1.69,2.88,2.53,6.95,2.53,12.2v23.75h-12.02v-23.09c0-7.3-3.48-10.1-6.27-10.1-1.99,0-6.68.86-6.68,10.23v22.96h-12.02v-23.09c0-8.32-4.28-9.99-6.33-9.99-1.24,0-6.72.54-6.72,10.12v22.96h-12.02v-43.68Z"/>
      <polygon class="cls-1" points="420.04 34.04 433.41 34.04 443.55 59.91 453.82 34.04 467.06 34.04 448.88 77.77 438.27 77.77 420.04 34.04"/>
      <path class="cls-1" d="M478.34,51.3h18.03c-1.63-5.07-4.64-7.6-9.01-7.6s-7.58,2.53-9.02,7.6M497.12,61.82l10.51,4.13c-4.82,7.89-11.39,11.83-19.72,11.83-6.26,0-11.47-2.13-15.63-6.38-4.16-4.26-6.24-9.54-6.24-15.87s2.07-11.55,6.2-15.87c4.13-4.32,9.17-6.48,15.12-6.48s11.08,2.19,15.02,6.57c3.94,4.38,5.92,9.92,5.92,16.62,0,1-.03,2.1-.1,3.29h-29.86c1.56,5.01,4.73,7.51,9.49,7.51,3.94,0,7.04-1.78,9.29-5.35"/>
      <path class="cls-1" d="M398.79,66.99c-6.31,0-11.42-5.11-11.42-11.42s5.11-11.42,11.42-11.42,11.42,5.11,11.42,11.42-5.11,11.42-11.42,11.42M398.77,32.99c-12.34,0-22.35,10.01-22.35,22.35s10.01,22.35,22.35,22.35,22.35-10.01,22.35-22.35-10.01-22.35-22.35-22.35"/>
      <path class="cls-1" d="M281.6,67.27c-5.9,0-10.68-5.29-10.68-11.82s4.78-11.83,10.68-11.83,10.68,5.29,10.68,11.83-4.78,11.82-10.68,11.82M291.55,34.18v2.85c-3.44-2.56-7.04-3.85-10.8-3.85-5.95,0-11,2.17-15.17,6.52-4.16,4.35-6.24,9.59-6.24,15.73s2.08,11.47,6.24,15.82c4.16,4.35,9.22,6.52,15.17,6.52,3.75,0,7.35-1.28,10.8-3.85v3.09h12.02v-42.84h-12.02Z"/>
      <path class="cls-1" d="M511.08,28.48h.69c1,0,1.2.31,1.2.81,0,.23,0,.92-1.2.92h-.69v-1.73ZM514.7,29.29c0-1.05-.49-2.3-2.8-2.3h-2.56v7.4h1.75v-2.69h.61l1.48,2.69h1.97l-1.72-3c.82-.39,1.27-1.13,1.27-2.1"/>
      <path class="cls-1" d="M511.87,37.51c-3.73,0-6.77-3.04-6.77-6.77s3.04-6.77,6.77-6.77,6.77,3.04,6.77,6.77-3.04,6.77-6.77,6.77M511.87,22.61c-4.48,0-8.13,3.65-8.13,8.13s3.65,8.13,8.13,8.13,8.13-3.65,8.13-8.13-3.65-8.13-8.13-8.13"/>
      <path class="cls-2" d="M57.61,30.82h-23.95c-2.62,0-4.75-2.12-4.75-4.75s2.13-4.75,4.75-4.75h23.95c2.62,0,4.75,2.13,4.75,4.75s-2.12,4.75-4.75,4.75"/>
      <path class="cls-2" d="M53.31,50.5H4.75c-2.62,0-4.75-2.12-4.75-4.75s2.13-4.75,4.75-4.75h48.56c2.62,0,4.75,2.13,4.75,4.75s-2.13,4.75-4.75,4.75"/>
      <path class="cls-2" d="M44.74,70.25H15.78c-2.62,0-4.75-2.13-4.75-4.75s2.13-4.75,4.75-4.75h28.96c2.62,0,4.75,2.13,4.75,4.75s-2.13,4.75-4.75,4.75"/>
      <path class="cls-2" d="M130.16,83.07l-23.64-64.98C102.58,7.28,92.32-.24,80.82,0c-9.89.21-18.98,5.48-24.1,13.96l-3.48,5.99h-.01s-6.3,10.88-6.3,10.88h2.01c2.81,0,5.08,2.27,5.08,5.08s-2.27,5.08-5.08,5.08h-7.9l-5.15,8.89h.06l-5.76,9.96h-.08l-5.79,9.99h.1l-7.2,12.47c-1.92,3.32.49,7.48,4.32,7.48h25.53c3.56,0,6.85-1.9,8.64-4.98l8.63-14.97h31.09l5.62,14.97c1.09,2.9,3.85,4.83,6.95,4.85l17.44.13c3.48.03,5.91-3.43,4.72-6.69"/>
      <path class="cls-3" d="M75.34,50.75c-2.69,0-4.88-2.18-4.88-4.88s2.18-4.87,4.88-4.87,4.88,2.18,4.88,4.87-2.18,4.88-4.88,4.88"/>
      <path class="cls-3" d="M93.62,50.74c-2.7,0-4.88-2.18-4.88-4.87s2.18-4.89,4.88-4.89,4.88,2.19,4.88,4.89-2.18,4.87-4.88,4.87"/>
    </g>
  </g>
</svg>